<svg xmlns="http://www.w3.org/2000/svg" xmlns:xlink="http://www.w3.org/1999/xlink" viewBox="0 0 194.46 74.85"><defs><style>.cls-1{fill:none;}.cls-2{clip-path:url(#clip-path);}.cls-3{fill:#11844d;}</style><clipPath id="clip-path" transform="translate(-16.52 -12.47)"><rect class="cls-1" width="226.11" height="94.45"/></clipPath></defs><g id="Capa_2" data-name="Capa 2"><g id="Capa_1-2" data-name="Capa 1"><g id="Capa_2-2" data-name="Capa 2"><g id="Capa_1-2-2" data-name="Capa 1-2"><g class="cls-2"><g class="cls-2"><path class="cls-3" d="M32.2,64.53A1.46,1.46,0,0,0,33.65,66h4.21V61.7H36.4a1.28,1.28,0,1,1,0-2.56h1.46V56.22H36.4a1.29,1.29,0,0,1,0-2.57h1.46V50.73H36.4a1.28,1.28,0,0,1,0-2.56h1.46V43.88h-4.2a1.46,1.46,0,0,0-1.46,1.46ZM24,24.68v9.61a5.7,5.7,0,0,0,.88-.38,7,7,0,0,1,6.64,0,4.55,4.55,0,0,0,4.33,0,6.48,6.48,0,0,1,2-.72V24.68Zm13.88-9.51a.09.09,0,0,0-.08-.09H35v7h2.91Zm-5.48-.09H29.46v7h2.92Zm-8.4.09v7h2.91v-7H24.06a.09.09,0,0,0-.08.08h0M33.66,41.4h4.2V35.82a5.7,5.7,0,0,0-.88.38,7.13,7.13,0,0,1-6.63,0,4.57,4.57,0,0,0-4.34,0,7.15,7.15,0,0,1-2,.72V61.79a1.29,1.29,0,0,1-2.57.23.89.89,0,0,1,0-.23V24.68h-.09a1.28,1.28,0,0,1,0-2.56h.09v-7a2.65,2.65,0,0,1,2.65-2.65H37.78a2.65,2.65,0,0,1,2.65,2.65h0v7h.09a1.28,1.28,0,0,1,0,2.56h-.09V78.25a9.53,9.53,0,0,1-6.35,9,1.28,1.28,0,0,1-.85-2.42h0a7,7,0,0,0,4.63-6.55V68.56h-4.2a4,4,0,0,1-4-4V45.34a4,4,0,0,1,4-4" transform="translate(-16.52 -12.47)"/><path class="cls-3" d="M20.63,74.83l3.54-5.3,3.53,5.3a4.41,4.41,0,0,1,.3,4.46,4.15,4.15,0,0,1-3.56,2.32,3.69,3.69,0,0,1-.47,0,4.13,4.13,0,0,1-3.55-2.32,4.38,4.38,0,0,1,.25-4.46ZM23.78,85h.77A7.49,7.49,0,0,0,31,80.81,7.69,7.69,0,0,0,30.49,73l-4.93-7.4a1.68,1.68,0,0,0-2.79,0L17.84,73a7.69,7.69,0,0,0-.46,7.84A7.52,7.52,0,0,0,23.78,85" transform="translate(-16.52 -12.47)"/><path class="cls-3" d="M203.9,64.23l4.19-4c1.87-1.79,2.26-3,2.26-4.32,0-2.35-1.84-3.82-4.71-3.82a6.33,6.33,0,0,0-5,2.08L202,55.28a4.35,4.35,0,0,1,3.51-1.49c1.92,0,2.92.87,2.92,2.28,0,.86-.28,1.72-1.73,3.14l-5.59,5.39v1.33H211v-1.7Zm-9.69-2.87h5.27V59.74h-5.27Zm-2.61-9.15-5,11.27-4.94-11.27h-2.12l6,13.72h1.94l6-13.72ZM174.15,64.4a3.66,3.66,0,1,1,3.49-3.83v.17a3.44,3.44,0,0,1-3.21,3.65h-.28m0,1.65a5.31,5.31,0,1,0-5.41-5.31,5.17,5.17,0,0,0,5,5.31,2.54,2.54,0,0,0,.39,0m-11.79,0a6.85,6.85,0,0,0,5.24-2.16l-1.28-1.23a5.13,5.13,0,0,1-3.86,1.64A5.28,5.28,0,0,1,162,53.75h.46a5,5,0,0,1,3.86,1.63l1.28-1.23A6.77,6.77,0,0,0,162.38,52a7,7,0,1,0,0,14h0m-14.72-4.73h5.27V59.74h-5.27ZM140.09,66c3.63,0,5.31-1.8,5.31-3.9,0-5-8.31-2.94-8.31-6.3,0-1.19,1-2.17,3.33-2.17a7.09,7.09,0,0,1,3.77,1.11l.64-1.57A8.06,8.06,0,0,0,140.42,52c-3.61,0-5.25,1.8-5.25,3.92,0,5.1,8.31,3,8.31,6.33,0,1.2-1,2.12-3.39,2.12a7,7,0,0,1-4.53-1.59l-.73,1.53A8.2,8.2,0,0,0,140.09,66m-13-6h-3.34v-6.1h3.34c2.51,0,3.82,1.12,3.82,3.08s-1.31,3.1-3.82,3.1m6,5.84-3.26-4.61a4.31,4.31,0,0,0,3-4.33c0-3-2.16-4.78-5.72-4.78h-5.36V65.93h2V61.76H128L131,66Zm-23.53-5,3-6.72,3,6.72Zm8.11,5h2.06L113.5,52.21h-1.9l-6.22,13.72h2l1.51-3.43h7.29Zm-18.43.16c3.63,0,5.32-1.8,5.32-3.9,0-5-8.32-2.94-8.32-6.3,0-1.19,1-2.17,3.34-2.17a7.15,7.15,0,0,1,3.76,1.11l.65-1.57a8.06,8.06,0,0,0-4.41-1.21c-3.61,0-5.26,1.8-5.26,3.92,0,5.1,8.31,3,8.31,6.33,0,1.2-1,2.12-3.39,2.12a7,7,0,0,1-4.53-1.59L94,64.36a8.1,8.1,0,0,0,5.25,1.73m-10-.16h2V52.21h-2Zm-8.78,0h1.94v-12h4.71v-1.7H75.71v1.7h4.71ZM71.61,52.21V62.44L63.38,52.21H61.77V65.93h2V55.7L72,65.93h1.6V52.21ZM49.55,60.93l3-6.72,3,6.72Zm8.12,5h2.06L53.49,52.21H51.55L45.34,65.93h2l1.51-3.43h7.29Z" transform="translate(-16.52 -12.47)"/><path class="cls-3" d="M204.42,87.14c4,0,5.94-2,5.94-4.33,0-5-7.61-3.41-7.61-5.47,0-.67.58-1.2,2.17-1.2a8,8,0,0,1,3.72,1l1.17-2.82a10,10,0,0,0-4.87-1.17c-4,0-5.95,2-5.95,4.35,0,5,7.64,3.44,7.64,5.57,0,.65-.62,1.09-2.19,1.09A8.5,8.5,0,0,1,200,82.87l-1.25,2.8a10.6,10.6,0,0,0,5.66,1.47M190.25,84a3.84,3.84,0,1,1,3.61-4,1.48,1.48,0,0,1,0,.21A3.6,3.6,0,0,1,190.52,84h-.27m0,3.14c4.29,0,7.46-3,7.46-7s-3.17-7-7.46-7-7.46,3-7.46,7,3.16,7,7.46,7M179.1,73.45l-3.72,8.75-3.64-8.75h-4.1l5.73,13.42h3.74l5.75-13.42ZM162.78,86.87h3.8V73.45h-3.8Zm-9.32,0h3.8V76.46h4.1v-3h-12v3h4.12Zm-12.83-5.4,1.73-4.3,1.73,4.3Zm5.62,5.4h3.95l-5.94-13.42h-3.74l-5.93,13.42h3.88l1.05-2.6h5.68Zm-18.7,0h3.8V76.46h4.1v-3h-12v3h4.12Zm-9.36,0H122V73.45h-3.8Zm-9.32,0h3.8V76.46h4.11v-3h-12v3h4.12ZM99.61,73.45V80.6l-5.93-7.15H90.56V86.87h3.72V79.72l5.93,7.15h3.12V73.45Zm-19.69,8,1.72-4.3,1.73,4.3Zm5.61,5.4h4l-6-13.4H79.8L73.87,86.87h3.88l1-2.6h5.68Zm-18.64.27c4,0,6.31-2.24,6.31-6.25V73.45H69.46v7.33c0,2.3-1,3.22-2.53,3.22s-2.55-.92-2.55-3.22V73.45h-3.8v7.44c0,4,2.34,6.25,6.31,6.25m-13.5,0a7.07,7.07,0,0,0,5.77-2.53l-2.41-2.18A4,4,0,0,1,53.58,84a3.84,3.84,0,0,1,0-7.67,4,4,0,0,1,3.17,1.57l2.41-2.19a7.07,7.07,0,0,0-5.77-2.53c-4.26,0-7.38,2.9-7.38,7s3.12,7,7.38,7" transform="translate(-16.52 -12.47)"/><path class="cls-3" d="M203.72,44.94c4.61,0,6.92-2.29,6.92-5,0-5.47-8.21-4-8.21-5.77,0-.51.46-.94,1.93-.94a9.21,9.21,0,0,1,4.14,1.11L210,30.7a11.75,11.75,0,0,0-5.61-1.3c-4.61,0-6.92,2.25-6.92,5,0,5.54,8.22,4,8.22,5.91,0,.5-.51.8-1.94.8a10.17,10.17,0,0,1-4.9-1.36l-1.61,3.66a13.24,13.24,0,0,0,6.47,1.52m-15.75-4c-1.85,0-3.34-1.4-3.34-3.72a3.35,3.35,0,1,1,6.67-.63,3.31,3.31,0,0,1,0,.63c0,2.32-1.49,3.72-3.33,3.72m0,4c4.84,0,8.38-3.27,8.38-7.77S192.81,29.4,188,29.4s-8.39,3.27-8.39,7.77,3.55,7.77,8.39,7.77m-16.73-7.85h-1.83V33.61h1.83c1.38,0,2,.65,2,1.74s-.65,1.74-2,1.74m.31-7.35H164.4V44.6h5V41h2.14c4.15,0,6.78-2.16,6.78-5.6s-2.63-5.61-6.78-5.61M157.45,35.4c0,1.08-.66,1.74-2,1.74h-1.83V33.61h1.83c1.38,0,2,.65,2,1.74m0,9.25h5.35L159.71,40a5,5,0,0,0,2.8-4.67c0-3.44-2.63-5.61-6.77-5.61h-7.16V44.6h5V40.87H155Zm-18.26-3.78v-2h6.28V35.26h-6.28V33.52h7.15V29.74H134.29V44.6h12.36V40.82Zm-14.46,4.12c4.57,0,7.24-2.57,7.24-7v-8.2h-4.92v8c0,2.27-.88,3.12-2.28,3.12s-2.27-.85-2.27-3.12v-8h-5v8.18c0,4.45,2.68,7,7.24,7m-15,0a8,8,0,0,0,6.67-3l-3.17-2.82A4,4,0,0,1,110,40.89a3.42,3.42,0,0,1-3.49-3.72,3.4,3.4,0,0,1,3-3.7H110a4,4,0,0,1,3.24,1.74l3.17-2.83a8,8,0,0,0-6.67-3c-4.78,0-8.28,3.21-8.28,7.77s3.5,7.77,8.28,7.77M94.63,44.6h5V29.74h-5ZM84,44.6h5v-11h4.35V29.74H79.62v3.89H84ZM73.45,29.74v6.75L67.8,29.74H63.68V44.6h4.88V37.85l5.65,6.75h4.12V29.74Zm-21,8.66,1.44-3.73,1.44,3.73Zm5.26,6.2h5.18L56.38,29.74H51.45L45,44.6h5.1l1-2.59h5.64Z" transform="translate(-16.52 -12.47)"/><path class="cls-3" d="M172.1,21.49a3.22,3.22,0,0,1-3.31-3.14,2.08,2.08,0,0,1,0-.25,3.32,3.32,0,1,1,6.63-.36,2.16,2.16,0,0,1,0,.36,3.23,3.23,0,0,1-3.06,3.39h-.26m0,2.09a5.46,5.46,0,1,0-.3,0h.3M162,23.4h2.45V12.8H162Zm-10-2V14.82h2.24a3.16,3.16,0,0,1,3.47,2.8,3.85,3.85,0,0,1,0,.48,3.16,3.16,0,0,1-3,3.3,2.46,2.46,0,0,1-.47,0Zm-2.45,2h4.81c3.47,0,5.85-2.09,5.85-5.3s-2.38-5.3-5.85-5.3h-4.81Zm-7.22.18c3,0,4.8-1.73,4.8-4.84V12.8h-2.42v5.85c0,2-.86,2.84-2.36,2.84S140,20.66,140,18.65V12.8h-2.5v5.94c0,3.11,1.78,4.84,4.79,4.84m-11.68-.18h2.45V14.8h3.39v-2h-9.23v2h3.39Zm-8.21.18c3,0,4.49-1.51,4.49-3.28,0-3.89-6.16-2.55-6.16-4.5,0-.66.56-1.21,2-1.21a6,6,0,0,1,2.94.83l.76-1.86a7.18,7.18,0,0,0-3.68-.94c-3,0-4.47,1.5-4.47,3.3,0,3.94,6.16,2.57,6.16,4.56,0,.65-.59,1.13-2,1.13a6.25,6.25,0,0,1-3.5-1.1l-.83,1.84a7.52,7.52,0,0,0,4.32,1.23m-11.2-2.15V19h4.91V17.07H111.2v-2.3h5.57v-2h-8V23.4H117v-2Zm-14.36.06a3.23,3.23,0,0,1-3.32-3.16V18.1a3.32,3.32,0,1,1,6.63-.36,2.16,2.16,0,0,1,0,.36,3.23,3.23,0,0,1-3.06,3.39h-.25m0,2.09a5.53,5.53,0,1,0-.4,0h.33M88.51,12.8l-3.27,7.57L82,12.8H79.37l4.57,10.6h2.42L91,12.8ZM73.2,21.43V19h4.92V17.07H73.2v-2.3h5.57v-2h-8V23.4H79v-2Zm-9.65,2.15c3,0,4.79-1.73,4.79-4.84V12.8H65.92v5.85c0,2-.86,2.84-2.36,2.84s-2.36-.83-2.36-2.84V12.8H58.75v5.94c0,3.11,1.78,4.84,4.8,4.84M53.91,12.8v6.44L48.64,12.8h-2V23.4H49V17l5.28,6.43h2V12.8Z" transform="translate(-16.52 -12.47)"/></g></g></g></g></g></g></svg>