<svg xmlns="http://www.w3.org/2000/svg" xmlns:xlink="http://www.w3.org/1999/xlink" width="138.539" height="45.826" viewBox="0 0 138.539 45.826">
  <defs>
    <clipPath id="clip-path">
      <rect id="Rectángulo_11093" data-name="Rectángulo 11093" width="138.539" height="45.826" fill="none"/>
    </clipPath>
  </defs>
  <g id="ANTIGENOS-COLOR" transform="translate(-348 -4)">
    <g id="Artwork_4" data-name="Artwork 4" transform="translate(348 4)" clip-path="url(#clip-path)">
      <path id="Trazado_48972" data-name="Trazado 48972" d="M55.438,6.4a.508.508,0,0,1-.508.508H42.53a.508.508,0,0,1-.508-.508V1.83a.508.508,0,0,1,.508-.508h1.677v2.8a.661.661,0,0,0,1.321,0v-2.8h2.49v2.8a.661.661,0,1,0,1.321,0v-2.8h2.49v2.8a.661.661,0,1,0,1.321,0v-2.8h1.677a.508.508,0,0,1,.508.508ZM50.2,43.351a1.88,1.88,0,0,1-1.372.661h-.2a1.88,1.88,0,0,1-1.372-.661,2.744,2.744,0,0,1-.508-2.134l.559-5.489h2.9l.559,5.489a2.744,2.744,0,0,1-.508,2.134M54.93,0H42.53A1.83,1.83,0,0,0,40.7,1.83V6.353a1.83,1.83,0,0,0,1.83,1.83h3.507V21.142a.661.661,0,1,0,1.321,0V8.233h2.8V34.457H47.307V24.293a.661.661,0,0,0-1.321,0V35.067l-.61,6.048a3.964,3.964,0,0,0,.864,3.1,3.2,3.2,0,0,0,2.338,1.067h.254a3.2,3.2,0,0,0,2.338-1.067,3.964,3.964,0,0,0,.864-3.1l-.61-6.048V8.233H54.93A1.83,1.83,0,0,0,56.76,6.4V1.83A1.83,1.83,0,0,0,54.93,0" transform="translate(-20.016)" fill="#009ba4"/>
      <path id="Trazado_48973" data-name="Trazado 48973" d="M16.72,4.218H1.321V1.372h15.4ZM15.4,35.727H7.471a.966.966,0,0,1-.966-.966V10.825a.966.966,0,0,1,.966-.966H15.4ZM16.72,0H1.372A1.372,1.372,0,0,0,0,1.372V4.218A1.372,1.372,0,0,0,1.321,5.59V21.142a.661.661,0,1,0,1.321,0V5.59H15.348V8.538H7.471a2.287,2.287,0,0,0-2.287,2.287V34.762a2.287,2.287,0,0,0,2.287,2.287H15.4v.61a6.353,6.353,0,0,1-12.705,0V24.293a.661.661,0,1,0-1.321,0V37.659a7.674,7.674,0,0,0,15.348,0V5.59a1.372,1.372,0,0,0,1.321-1.372V1.372A1.372,1.372,0,0,0,16.72,0" transform="translate(0 0)" fill="#009ba4"/>
      <path id="Trazado_48974" data-name="Trazado 48974" d="M18.721,42.221H20.4V43.9H18.721Zm-.661,3h3a.661.661,0,0,0,.661-.661v-3a.661.661,0,0,0-.661-.661h-3a.661.661,0,0,0-.661.661v3a.661.661,0,0,0,.661.661" transform="translate(-8.557 -20.114)" fill="#009ba4"/>
      <path id="Trazado_48975" data-name="Trazado 48975" d="M18.721,56.321H20.4V58H18.721Zm-.661,3h3a.661.661,0,0,0,.661-.661v-3A.661.661,0,0,0,21.059,55h-3a.661.661,0,0,0-.661.661v3a.661.661,0,0,0,.661.661" transform="translate(-8.557 -27.048)" fill="#009ba4"/>
      <path id="Trazado_48976" data-name="Trazado 48976" d="M18.061,27.221h3a.661.661,0,1,0,0-1.321h-3a.661.661,0,0,0,0,1.321" transform="translate(-8.557 -12.737)" fill="#009ba4"/>
      <path id="Trazado_48977" data-name="Trazado 48977" d="M18.061,33.221h3a.661.661,0,1,0,0-1.321h-3a.661.661,0,0,0,0,1.321" transform="translate(-8.557 -15.688)" fill="#009ba4"/>
      <path id="Trazado_48978" data-name="Trazado 48978" d="M169.664,67.118c-1.83,0-3-.966-3-2.541s1.22-2.541,2.948-2.541a2.839,2.839,0,0,1,3.1,2.541c0,1.423-1.22,2.541-3.049,2.541m-.2-7.267c-3.049,0-5.489,1.88-5.489,4.828s2.185,4.574,5.133,4.574a5.1,5.1,0,0,0,4.015-1.575h0c0,3.405-1.779,5.133-4.574,5.133A5.082,5.082,0,0,1,165.7,72.1l-1.016,2.084a7.471,7.471,0,0,0,3.913.966c4.32,0,7.318-2.8,7.318-7.928s-2.389-7.42-6.454-7.42m-13.925.2v2.338h3.151V75h2.8V60.054Zm-6.81,10.215h5.9V67.982h-5.9ZM134.6,72.709V62.443h3.608c3.354,0,5.489,2.033,5.489,5.133s-2.134,5.082-5.438,5.082Zm-2.8,2.338h6.556c4.828,0,8.131-3,8.131-7.471s-3.3-7.471-8.131-7.471H131.8Zm-6.81,0h2.8V60.054h-2.8ZM120.621,60.1l-4.98,11.486-4.98-11.536h-3L114.218,75h2.744l6.505-14.941ZM99.225,72.81a5.235,5.235,0,1,1,5.285-5.285,5.082,5.082,0,0,1-5.235,5.235m0,2.439c4.625,0,8.03-3.253,8.03-7.674s-3.405-7.674-8.03-7.674-8.081,3.3-8.081,7.674a7.66,7.66,0,0,0,8.03,7.674m-15.246,0a7.665,7.665,0,0,0,5.946-2.49l-1.779-1.728a5.184,5.184,0,0,1-4.015,1.83,5.261,5.261,0,1,1,0-10.52,5.235,5.235,0,0,1,4.015,1.728l1.779-1.677a7.572,7.572,0,0,0-5.9-2.49c-4.625,0-8.03,3.253-8.03,7.674A7.617,7.617,0,0,0,83.979,75.2" transform="translate(-37.376 -29.409)" fill="#009ba4"/>
      <path id="Trazado_48979" data-name="Trazado 48979" d="M171.643,45.184c2.49,0,3.71-1.271,3.71-2.694,0-3.2-5.082-2.084-5.082-3.71,0-.559.457-1.016,1.677-1.016a4.93,4.93,0,0,1,2.439.712l.61-1.525a5.9,5.9,0,0,0-3.049-.762c-2.49,0-3.71,1.22-3.71,2.744,0,3.253,5.082,2.134,5.082,3.761,0,.559-.508.915-1.677.915a5.133,5.133,0,0,1-2.9-.915l-.711,1.525a6.251,6.251,0,0,0,3.558,1.016m-9.2-1.728a2.694,2.694,0,0,1-2.744-2.8,2.744,2.744,0,1,1,5.489,0,2.694,2.694,0,0,1-2.744,2.8m0,1.728a4.53,4.53,0,1,0-4.777-4.523,4.533,4.533,0,0,0,4.777,4.523m-8.284-9v5.336l-4.371-5.336h-1.677v8.792h1.982V39.7l4.371,5.336h1.677V36.239Zm-12.4,7.115V41.322h4.066V39.8h-4.066V37.866h4.625V36.239h-6.607v8.792h6.759V43.405Zm-5.743-.3a3.2,3.2,0,0,1-1.575.356,2.8,2.8,0,0,1,0-5.59,2.948,2.948,0,0,1,2.287.966L138,37.561a4.676,4.676,0,0,0-3.659-1.525,4.531,4.531,0,1,0-.051,9.046,6.048,6.048,0,0,0,3.558-1.118V40.508h-1.83ZM125.9,45.032h2.033V36.239H125.9Zm-.1-9.453h1.525l2.287-1.779H127.53Zm-5.794,9.453h2.033V37.917h2.8V36.239h-7.623v1.677h2.8Zm-5.9-8.792v5.336l-4.371-5.336h-1.677v8.792h1.982V39.7l4.371,5.336h1.677V36.239Zm-13.264,5.336,1.372-3.354,1.372,3.354Zm4.167,3.405h2.134l-3.913-8.741h-1.982l-3.913,8.741h2.084l.762-1.88h4.066ZM88.55,43.354V41.322h4.066V39.8H88.55V37.866h4.625V36.239H86.568v8.792h6.759V43.405ZM78.233,43.3V37.917h1.83a2.7,2.7,0,1,1,0,5.387ZM76.2,44.981h3.964c2.846,0,4.828-1.728,4.828-4.371s-1.982-4.371-4.828-4.371H76.2Z" transform="translate(-37.474 -16.622)" fill="#009ba4"/>
      <path id="Trazado_48980" data-name="Trazado 48980" d="M163.352,10.794l1.474-3.812,1.474,3.812Zm5.387,6.353h5.336L167.418,1.9h-5.031l-6.658,15.246h5.235L161.98,14.5h5.794Zm-20.074-3.608h-3.1V11.149h3.1q1.677,0,1.677,1.22t-1.677,1.22m-.711-8.081c1.169,0,1.677.407,1.677,1.118s-.508,1.118-1.677,1.118h-2.389V5.508Zm4.726,3.659a3.558,3.558,0,0,0,2.135-3.3c0-2.287-1.982-3.964-6.149-3.964h-8.131V17.146h8.589c4.218,0,6.454-1.525,6.454-4.218a3.888,3.888,0,0,0-2.846-3.761m-21.8,4.117V11.251h6.454V7.541h-6.454V5.762h7.318V1.9h-12.4V17.146H138.5V13.284ZM116.088,17.5c4.676,0,7.42-2.643,7.42-7.217V1.9h-5.031v8.233c0,2.338-.915,3.2-2.338,3.2s-2.338-.864-2.338-3.2V1.9h-5.133v8.386c0,4.574,2.744,7.217,7.42,7.217M101.655,7.643c0,1.118-.661,1.779-2.084,1.779h-1.88V5.864h1.88c1.423,0,2.084.661,2.084,1.779m0,9.5h5.489l-3.2-4.726a5.082,5.082,0,0,0,2.9-4.777c0-3.507-2.694-5.743-6.963-5.743H92.558V17.146h5.133V13.284h1.372ZM83.613,9.422h-1.88V5.864h1.88c1.423,0,2.084.661,2.084,1.779s-.661,1.779-2.084,1.779m.3-7.522H76.6V17.146h5.133V13.386h2.185c4.269,0,6.963-2.236,6.963-5.743S88.187,1.9,83.969,1.9" transform="translate(-37.671 -0.934)" fill="#009ba4"/>
    </g>
  </g>
</svg>
