<svg id="PCR-COLOR" xmlns="http://www.w3.org/2000/svg" xmlns:xlink="http://www.w3.org/1999/xlink" width="109.963" height="51.557" viewBox="0 0 109.963 51.557">
  <defs>
    <clipPath id="clip-path">
      <rect id="Rectángulo_11091" data-name="Rectángulo 11091" width="109.963" height="51.557" fill="none"/>
    </clipPath>
  </defs>
  <g id="Artwork_7" data-name="Artwork 7" transform="translate(0 0)" clip-path="url(#clip-path)">
    <path id="Trazado_48962" data-name="Trazado 48962" d="M21.884,33.376,14.139,48.765a.459.459,0,0,1-.815,0L5.578,33.376a5.707,5.707,0,0,1-.611-2.548v-.611H22.5v.611a5.707,5.707,0,0,1-.611,2.548M2.419,13.2v2.191M4.967,8.815H22.5V21.35H4.967Zm0,15.134H22.5v3.72H4.967ZM2.419,17.987V27.72a1.274,1.274,0,0,0,0,2.446v.662a8.255,8.255,0,0,0,.866,3.72L11.03,49.886a3.006,3.006,0,0,0,5.4,0l7.745-15.338a8.255,8.255,0,0,0,.866-3.72v-.662a1.274,1.274,0,0,0,0-2.446V8.306A4.382,4.382,0,0,0,23.056,0H13.374a1.274,1.274,0,1,0,0,2.548h9.682a1.834,1.834,0,0,1,0,3.669H4.457a1.834,1.834,0,0,1,0-3.669H7.616A1.274,1.274,0,1,0,7.616,0H4.457A4.433,4.433,0,0,0,2.419,8.357V10.7" transform="translate(-0.024 0)" fill="#f59a22"/>
    <path id="Trazado_48963" data-name="Trazado 48963" d="M133.9,26.422l.713-1.834.713,1.834Zm2.6,3.057h2.6l-3.21-7.389h-2.446l-3.21,7.389h2.548l.51-1.274h2.8Zm-9.478.153a3.974,3.974,0,0,0,3.312-1.478l-1.58-1.427a1.987,1.987,0,0,1-1.631.866,1.682,1.682,0,0,1-1.733-1.834,1.682,1.682,0,0,1,1.733-1.834,1.987,1.987,0,0,1,1.631.866l1.58-1.427a3.974,3.974,0,0,0-3.312-1.478,3.881,3.881,0,1,0,0,7.745m-7.542-.153h2.5V22.142h-2.5Zm-5.3,0h2.5v-5.4h2.14V22.142h-6.777v1.936h2.191Zm-5.656.153c2.293,0,3.465-1.121,3.465-2.5,0-2.7-4.076-1.987-4.076-2.854s.255-.459.968-.459a4.535,4.535,0,0,1,2.038.561l.764-1.783a5.86,5.86,0,0,0-2.8-.662c-2.293,0-3.465,1.121-3.465,2.5,0,2.752,4.076,1.987,4.076,2.955s-.255.408-.968.408a5.045,5.045,0,0,1-2.446-.662l-.815,1.834a6.624,6.624,0,0,0,3.21.764M100.623,27.7a1.682,1.682,0,0,1-1.682-1.834,1.682,1.682,0,1,1,3.312,0,1.682,1.682,0,0,1-1.682,1.834m0,2.038a3.884,3.884,0,1,0-4.178-3.873,3.918,3.918,0,0,0,4.178,3.873m-1.121-8.153h1.58L103.12,19.9h-2.14Zm-6.42.611v3.363l-2.8-3.363H88.19v7.338h2.6V26.168l2.8,3.363H95.63V22.142Zm-7.9,5.3a2.293,2.293,0,0,1-.917.2,1.682,1.682,0,0,1-1.783-1.834,1.682,1.682,0,0,1,1.783-1.834,2.089,2.089,0,0,1,1.682.815l1.58-1.427a4.178,4.178,0,0,0-3.363-1.427,3.882,3.882,0,1,0-.051,7.745,5.962,5.962,0,0,0,3.21-.917v-3.21h-2.14Zm-10.4-1.07.713-1.834.713,1.834Zm2.6,3.057h2.6l-3.21-7.338H74.279l-3.261,7.389h2.548l.51-1.274h2.8Zm-9.223,0h2.5V22.142h-2.5ZM61.9,27.594V24.078h1.019A1.631,1.631,0,0,1,64.7,25.811a1.631,1.631,0,0,1-1.732,1.783Zm-2.5,1.936h3.618c2.446,0,4.178-1.427,4.178-3.72s-1.682-3.72-4.178-3.72H59.4Z" transform="translate(-29.132 -9.76)" fill="#f59a22"/>
    <path id="Trazado_48964" data-name="Trazado 48964" d="M99.989,8.482l1.121-2.752,1.121,2.752Zm3.414,2.8h1.732l-3.159-7.134h-1.631l-3.159,7.134h1.682l.611-1.529h3.312Zm-9.529-1.223H91.938V8.278h1.936c.866,0,1.325.306,1.325.866s-.459.866-1.325.866m-.306-4.637c.815,0,1.223.255,1.223.815s-.459.866-1.223.866H91.938V5.374ZM95.5,7.565a1.733,1.733,0,0,0,.968-1.58c0-1.121-.917-1.834-2.7-1.834H90.307v7.134h3.669c1.885,0,2.854-.713,2.854-1.936A1.783,1.783,0,0,0,95.5,7.565M85.11,9.96V8.329h3.312V7H85.11V5.476h3.72V4.151h-5.35v7.134h5.5V9.96Zm-6.522,1.427A2.939,2.939,0,0,0,81.8,8.126V4.151h-1.58V8.075c0,1.376-.561,1.936-1.58,1.936s-1.58-.561-1.58-1.936V4.151H75.377V8.126a2.962,2.962,0,0,0,3.21,3.261M72.473,6.75c0,.764-.51,1.223-1.529,1.223H69.619v-2.5h1.325c1.019,0,1.529.459,1.529,1.223m1.783,4.535-1.58-2.293A2.293,2.293,0,0,0,74.154,6.7c0-1.58-1.172-2.6-3.108-2.6H67.938v7.134h1.631V9.3H71.1l1.376,1.987ZM63.606,7.973H62.282v-2.5h1.325c1.019,0,1.529.459,1.529,1.223s-.51,1.223-1.529,1.223m.1-3.822H60.6v7.134h1.631V9.3h1.427c1.885,0,3.108-.968,3.108-2.6s-1.172-2.6-3.108-2.6" transform="translate(-29.721 -2.011)" fill="#f59a22"/>
    <path id="Trazado_48965" data-name="Trazado 48965" d="M131.5,87.8h6.064V85.76H134.1V80.1h-2.6Zm-5.809-3.21.764-1.936.764,1.936Zm2.7,3.21h2.7L127.729,80.1h-2.548L121.818,87.8h2.65l.51-1.325h2.9Zm-10.6-1.936V84.843h3.261V82.957h-3.261V82.04h3.72V80.1h-6.268V87.8h6.42V85.811Zm-6.115-2.854c0,.561-.357.917-1.07.917h-.968V82.091h.968c.713,0,1.07.357,1.07.917m0,4.79h2.752L112.8,85.4a2.548,2.548,0,0,0,1.427-2.395c0-1.783-1.376-2.9-3.516-2.9h-3.72V87.8h2.6V85.862h.713ZM98.531,85.862a1.948,1.948,0,1,1,1.733-1.936,1.747,1.747,0,0,1-1.733,1.936m0,2.089A4.036,4.036,0,1,0,94.2,83.926a4.05,4.05,0,0,0,4.331,4.026m-8.663-4.076H88.9V82.091h.968c.713,0,1.07.357,1.07.917s-.357.917-1.07.917m.153-3.822H86.3V87.8h2.6V85.862h1.121c2.14,0,3.516-1.121,3.516-2.9s-1.376-2.9-3.516-2.9m-4.943,7.694V80.1h-2.14L80.493,84.18,78,80.1h-2.14V87.8H78.2V84.384l1.682,2.7H81l1.682-2.8V87.8ZM71.015,85.811V84.792h3.261V82.957H71.015V82.04h3.72V80.1H68.467V87.8h6.42V85.811ZM64.645,87.8h2.6V80.1h-2.6Zm-5.5,0h2.6V82.091h2.242V80.1H56.9v1.987h2.242Z" transform="translate(-27.906 -39.186)" fill="#f59a22"/>
    <path id="Trazado_48966" data-name="Trazado 48966" d="M134.539,46.408v8.459l-6.93-8.459h-2.65V60.37h3.21V51.911l6.981,8.459h2.65V46.408ZM114.768,57.771v-3.21h6.471V52.013h-6.471V48.955h7.338V46.408H111.558V60.37h10.8v-2.6ZM98.513,51.656c0,1.019-.611,1.631-1.936,1.631H94.9V50.026h1.732c1.274,0,1.936.611,1.936,1.631m0,8.713h4.994L100.6,56.038a4.688,4.688,0,0,0,2.65-4.382c0-3.21-2.5-5.248-6.37-5.248H90.156V60.37H94.9V56.854h1.274Zm-16,.306a7.565,7.565,0,0,0,6.268-2.8l-2.955-2.65a3.771,3.771,0,0,1-3.057,1.631,3.2,3.2,0,0,1-3.261-3.516,3.2,3.2,0,0,1,3.261-3.516,3.771,3.771,0,0,1,3.057,1.631l2.955-2.65A7.565,7.565,0,0,0,82.564,46c-4.484,0-7.8,3.006-7.8,7.287s3.312,7.287,7.8,7.287M66.92,53.287H65.188V50.026H66.92c1.274,0,1.936.611,1.936,1.631s-.611,1.631-1.936,1.631m.306-6.93H60.5V60.37h4.688V56.956h2.038c3.873,0,6.37-2.038,6.37-5.248s-2.5-5.3-6.37-5.3" transform="translate(-29.672 -22.56)" fill="#f59a22"/>
  </g>
</svg>
